<svg xmlns="http://www.w3.org/2000/svg" xmlns:xlink="http://www.w3.org/1999/xlink" viewBox="0 0 202.42 137.98"><defs><style>.cls-1{fill:none;}.cls-2{isolation:isolate;}.cls-3{clip-path:url(#clip-path);}.cls-4{fill:#b100a0;}.cls-29,.cls-4{mix-blend-mode:overlay;}.cls-5{fill:#2e0066;}.cls-6{fill:aqua;}.cls-7{fill:#ff00a0;}.cls-8{fill:url(#linear-gradient);}.cls-9{fill:#270046;}.cls-10{fill:url(#linear-gradient-2);}.cls-11{fill:url(#linear-gradient-3);}.cls-12{fill:url(#linear-gradient-4);}.cls-13{fill:url(#linear-gradient-5);}.cls-14{fill:#82008a;}.cls-15{fill:#fdfdfd;}.cls-16{fill:url(#linear-gradient-6);}.cls-17{fill:url(#linear-gradient-7);}.cls-18{fill:#e537a8;}.cls-19{fill:#ff96ce;}.cls-20{fill:url(#linear-gradient-8);}.cls-21{fill:#ffaee1;}.cls-22{fill:url(#linear-gradient-9);}.cls-23{fill:#740277;}.cls-24{fill:url(#linear-gradient-10);}.cls-25{fill:url(#linear-gradient-11);}.cls-26{fill:url(#linear-gradient-12);}.cls-27{fill:url(#linear-gradient-13);}.cls-28{fill:url(#linear-gradient-14);}.cls-29{fill:#f8e8d8;}.cls-30{fill:#3f1980;}.cls-31{fill:#502d8b;}.cls-32{fill:#dd678f;}.cls-33{fill:#ff86ab;}.cls-34{fill:#ffa5c6;}.cls-35{fill:#270052;}</style><clipPath id="clip-path" transform="translate(1.1 -32.26)"><rect class="cls-1" x="2.54" y="26.71" width="194.92" height="131.94" transform="translate(200 185.36) rotate(180)"/></clipPath><linearGradient id="linear-gradient" x1="87.4" y1="141.51" x2="109.57" y2="15.46" gradientUnits="userSpaceOnUse"><stop offset="0" stop-color="#000626"/><stop offset="0.09" stop-color="#0a0535"/><stop offset="0.27" stop-color="#1a034b"/><stop offset="0.46" stop-color="#25015a"/><stop offset="0.68" stop-color="#2b0063"/><stop offset="1" stop-color="#2d0066"/></linearGradient><linearGradient id="linear-gradient-2" x1="142.91" y1="80.36" x2="139.94" y2="140.78" gradientUnits="userSpaceOnUse"><stop offset="0" stop-color="#ff0098"/><stop offset="0.02" stop-color="#f50096"/><stop offset="0.11" stop-color="#c7008b"/><stop offset="0.21" stop-color="#9d0081"/><stop offset="0.31" stop-color="#7b0078"/><stop offset="0.41" stop-color="#5e0072"/><stop offset="0.53" stop-color="#48006d"/><stop offset="0.65" stop-color="#390069"/><stop offset="0.79" stop-color="#300067"/><stop offset="1" stop-color="#2d0066"/></linearGradient><linearGradient id="linear-gradient-3" x1="60.58" y1="76.33" x2="57.61" y2="136.62" xlink:href="#linear-gradient-2"/><linearGradient id="linear-gradient-4" x1="101.69" y1="78.35" x2="98.72" y2="138.67" xlink:href="#linear-gradient-2"/><linearGradient id="linear-gradient-5" x1="101.85" y1="40.77" x2="100.53" y2="69.79" xlink:href="#linear-gradient-2"/><linearGradient id="linear-gradient-6" x1="72.59" y1="138.92" x2="94.77" y2="12.73" xlink:href="#linear-gradient"/><linearGradient id="linear-gradient-7" x1="108.97" y1="145.43" x2="131.16" y2="19.19" xlink:href="#linear-gradient"/><linearGradient id="linear-gradient-8" x1="84.27" y1="140.77" x2="106.4" y2="14.95" xlink:href="#linear-gradient"/><linearGradient id="linear-gradient-9" x1="76.1" y1="45.56" x2="112.19" y2="28.61" xlink:href="#linear-gradient-2"/><linearGradient id="linear-gradient-10" x1="116.1" y1="47.69" x2="96.27" y2="85.22" xlink:href="#linear-gradient-2"/><linearGradient id="linear-gradient-11" x1="81.66" y1="-67.99" x2="79.83" y2="193.74" xlink:href="#linear-gradient-2"/><linearGradient id="linear-gradient-12" x1="118.52" y1="-67.74" x2="116.69" y2="194.01" xlink:href="#linear-gradient-2"/><linearGradient id="linear-gradient-13" x1="84.68" y1="-67.97" x2="82.86" y2="193.76" xlink:href="#linear-gradient-2"/><linearGradient id="linear-gradient-14" x1="101.35" y1="-67.84" x2="99.52" y2="193.87" xlink:href="#linear-gradient-2"/></defs><g class="cls-2"><g id="Capa_1" data-name="Capa 1"><g class="cls-3"><ellipse class="cls-4" cx="101.1" cy="57.24" rx="56.38" ry="57.24"/><path class="cls-5" d="M131.5,86.44c-2.59-12-14.79-14.78-20.09-24.38S103.25,51,100,51s-6.12,1.48-11.41,11.09S71.09,74.39,68.5,86.44s1.37,40.31,1.37,49.89L100,138l30.13-1.63C130.13,126.75,134.1,98.5,131.5,86.44Z" transform="translate(1.1 -32.26)"/><path class="cls-6" d="M69.43,86.44c2.52-12,14.35-14.78,19.5-24.38S96.85,51,100,51c-3.25,0-6.12,1.48-11.41,11.09S71.09,74.39,68.5,86.44s1.37,40.31,1.37,49.89L100,138l-29.24-1.63C70.76,126.75,66.91,98.5,69.43,86.44Z" transform="translate(1.1 -32.26)"/><path class="cls-7" d="M131.5,86.44c-2.59-12-14.79-14.78-20.09-24.38S103.25,51,100,51c3.15,0,5.93,1.48,11.07,11.09s17,12.33,19.5,24.38-1.33,40.31-1.33,49.89L100,138l30.13-1.63C130.13,126.75,134.1,98.5,131.5,86.44Z" transform="translate(1.1 -32.26)"/><path class="cls-8" d="M82.59,75.65s4.17,19.7,16.28,18,15.23-13.1,16.59-18.65S114,59.78,114,59.78Z" transform="translate(1.1 -32.26)"/><path class="cls-9" d="M106.28,89.86c2.46-1.21,5.86-1,10.56,3.88s18.47,16.34,21.16,17.67,21.8,7.67,25.4,13.31S142.21,134,142.21,134s-12.41-9.33-14.84-11.93-16.84-20.63-16.84-20.63S102.4,91.79,106.28,89.86Z" transform="translate(1.1 -32.26)"/><path class="cls-7" d="M138,111.41a71.71,71.71,0,0,1-8.14-6.13h0a95.94,95.94,0,0,0,8.07,6.57c1.6,1,10.93,4.44,16.32,6.41C147.58,115,139.66,112.23,138,111.41Z" transform="translate(1.1 -32.26)"/><path class="cls-10" d="M159.83,121.63a96.79,96.79,0,0,0-16.74-7.7c-2.18-.82-4.63-2.13-7-2.1a7.37,7.37,0,0,0-6.08,2.88,6.32,6.32,0,0,1,5.62-3.93c-1.41-1-3-2-4.4-2.93a12.14,12.14,0,0,1-8.59-1.83q2,5.4,4,10.79l1.71-2.13c-.15,1.51-.3,3-.46,4.53a1.83,1.83,0,0,1,2.35-1,9.59,9.59,0,0,0,1.3.7c.87.23,1.81-.49,2.66-.2,1.14.4,1.18,2.19,2.24,2.75a2.44,2.44,0,0,0,2.37-.45,3.91,3.91,0,0,1,2.3-.94c1.18.09,1.9,1.34,2.89,2a6.49,6.49,0,0,0,3.95.64C151.88,122.5,155.91,121.83,159.83,121.63Z" transform="translate(1.1 -32.26)"/><path class="cls-5" d="M143,114.22a15.91,15.91,0,0,0-4-1.26,5.46,5.46,0,0,0-4,.9c2.07-.23,4.06.76,5.86,1.83s3.6,2.27,5.67,2.52a13.09,13.09,0,0,1,2.81.34c.81.28,2.78,2.27,3.62,1.9s.08-1.64-.32-2.06c-1-1-3-1.45-4.29-2Z" transform="translate(1.1 -32.26)"/><path class="cls-5" d="M133.53,110.29a5.22,5.22,0,0,0-3.19,1.86,2.22,2.22,0,0,1,1.31-1.77l-1.16-.19a.73.73,0,0,1,.27-.69,1.43,1.43,0,0,1,.7-.27A2.44,2.44,0,0,1,133.53,110.29Z" transform="translate(1.1 -32.26)"/><path class="cls-9" d="M93.72,89.86c-2.46-1.21-5.86-1-10.56,3.88S64.69,110.08,62,111.41s-21.8,7.67-25.4,13.31S57.79,134,57.79,134s12.41-9.33,14.84-11.93,16.84-20.63,16.84-20.63S97.6,91.79,93.72,89.86Z" transform="translate(1.1 -32.26)"/><path class="cls-6" d="M62,111.41c-1.82.9-11.18,4.1-18.15,7.83,3.52-1.52,17-7.35,19.49-8.21,1.87-.66,3.79-2.81,4.87-4.18A53.75,53.75,0,0,1,62,111.41Z" transform="translate(1.1 -32.26)"/><path class="cls-11" d="M40.17,121.63a96.79,96.79,0,0,1,16.74-7.7c2.18-.82,4.63-2.13,7-2.1a7.37,7.37,0,0,1,6.08,2.88,6.32,6.32,0,0,0-5.62-3.93c1.41-1,3-2,4.4-2.93A12.14,12.14,0,0,0,77.31,106q-2,5.4-4,10.79l-1.71-2.13c.15,1.51.3,3,.46,4.53a1.83,1.83,0,0,0-2.35-1,9.59,9.59,0,0,1-1.3.7c-.87.23-1.81-.49-2.66-.2-1.14.4-1.18,2.19-2.24,2.75a2.44,2.44,0,0,1-2.37-.45,3.91,3.91,0,0,0-2.3-.94c-1.18.09-1.9,1.34-2.89,2a6.49,6.49,0,0,1-4,.64C48.12,122.5,44.09,121.83,40.17,121.63Z" transform="translate(1.1 -32.26)"/><path class="cls-5" d="M57.66,114.4c.73-.3,3.08-2.36,3.8-1.52.38.44-.19,1.7-.46,2.07a4.74,4.74,0,0,1-1.84,1.31c-1.66.83-3.09,1.9-5,2.13a13.26,13.26,0,0,0-2.82.34c-.81.28-2.77,2.27-3.61,1.9s-.08-1.64.32-2.07c1-1,3-1.44,4.29-2Z" transform="translate(1.1 -32.26)"/><path class="cls-5" d="M66.47,110.29a5.22,5.22,0,0,1,3.19,1.86,2.22,2.22,0,0,0-1.31-1.77l1.16-.19a.73.73,0,0,0-.27-.69,1.43,1.43,0,0,0-.7-.27A2.44,2.44,0,0,0,66.47,110.29Z" transform="translate(1.1 -32.26)"/><path class="cls-12" d="M123.49,114.84c-.26-7.1-17.16-24.55-17.16-24.55l-6.46,2.33-6.36-2.48s-17,17.6-17.27,24.7,4.93,11.27,2.07,20.57h43.11C118.56,126.11,123.75,121.93,123.49,114.84Z" transform="translate(1.1 -32.26)"/><path class="cls-9" d="M110.13,102.57c2.92,2.73,7.15,4.19,9,7.77,1.55,3,.84,6.73,0,10a13.8,13.8,0,0,0,.62-17.5c-1.95-2.38-4.64-4-7.11-5.81A19.6,19.6,0,0,1,109,93.79c-.94-1.12-1.39-2.69-2.25-3.72C104,93.39,107.62,100.22,110.13,102.57Z" transform="translate(1.1 -32.26)"/><path class="cls-9" d="M84.85,105.39c2.43-1.92,4.93-3.88,6.57-6.53s2.26-6.18.75-8.91c-2.86,2.5-6,4.6-9,7a23.41,23.41,0,0,0-7,8.9c-1.06,2.66-.93,5.41-1,8.19A10.51,10.51,0,0,0,78,121.54a33.84,33.84,0,0,1-.56-5.59C77.49,110.86,81.15,108.3,84.85,105.39Z" transform="translate(1.1 -32.26)"/><path class="cls-9" d="M123.49,114.84a4.65,4.65,0,0,0-.08-.73,26.12,26.12,0,0,1-1.19,4.17c-.84,2.25-2.37,4.65-4.73,4.84-1.48.12-2.85-.69-4.25-1.19a10.77,10.77,0,0,0-9.85,1.46l2.59-4c-3.88,1.83-7.92,3.71-12.2,3.74a29.74,29.74,0,0,1-7.86-1.37,38.17,38.17,0,0,1-6.55-2.19,11.25,11.25,0,0,1-3-2c.83,5.6,4.39,9.81,1.91,17.87h43.11C118.56,126.11,123.75,121.93,123.49,114.84Z" transform="translate(1.1 -32.26)"/><rect class="cls-13" x="94.26" y="53.98" width="13.6" height="8.06" rx="2.98"/><ellipse class="cls-14" cx="101.15" cy="56.52" rx="5.42" ry="2.18"/><path class="cls-15" d="M104.29,105.62c.57-1.64,2.29-7.17.22-8.22s-3.33,4.73-3.77,6.94a7.89,7.89,0,0,0-.84,0,7.73,7.73,0,0,0-.84,0c-.44-2.21-1.79-7.94-3.77-6.94s-.35,6.58.22,8.22a4.71,4.71,0,0,0-2.15,3.8c0,2.83,2.93,5.12,6.54,5.12s6.54-2.29,6.54-5.12A4.71,4.71,0,0,0,104.29,105.62Zm-9.14,1.06L99.22,109S96,111.47,95.15,106.68Zm4.75,4.49c-1.81,2.27-3-.5-3-.5,1.57,1.94,3-.4,3-.4s1.47,2.34,3,.4C102.94,110.67,101.71,113.44,99.9,111.17Zm.68-2.22,4.07-2.27C103.82,111.47,100.58,109,100.58,109Z" transform="translate(1.1 -32.26)"/><path class="cls-16" d="M82.59,75.65c1.48,5.84-.34,9.15-9,14.08s-6.3,12.81-5.23,13.68c0,0-.08-6.1,4.32-8.43,0,0-4.19,3.75-3.35,12.54s5.17,14.1,10.18,14.57a17.28,17.28,0,0,1-2.25-10.62C77.85,105,88.8,105,92.09,96.69a16.46,16.46,0,0,0-1.33-14.85Z" transform="translate(1.1 -32.26)"/><path class="cls-17" d="M115.78,73c-.23,6.34.26,11,8.91,16s6.29,12.81,5.23,13.68c0,0,.08-6.1-4.32-8.42,0,0,4.19,3.74,3.34,12.53s-5.16,14.1-10.17,14.57A17.28,17.28,0,0,0,121,110.69c-.58-6.48-11.53-6.44-14.82-14.78a16.46,16.46,0,0,1,1.33-14.85Z" transform="translate(1.1 -32.26)"/><path class="cls-7" d="M122.17,88.11C128,92,132.82,95,129.92,102.63c1.06-.87,3.42-8.75-5.23-13.68s-9.14-9.63-8.91-16h0a40.58,40.58,0,0,0-1.34-11.47l0,0,0,0s.81,7,.91,13.16S116.35,84.17,122.17,88.11Z" transform="translate(1.1 -32.26)"/><path class="cls-18" d="M100.05,90.27h0a3,3,0,0,0,3-3V82H97.09v5.31A3,3,0,0,0,100.05,90.27Z" transform="translate(1.1 -32.26)"/><path class="cls-19" d="M101,86a14.54,14.54,0,0,1-3.42-.33v1.75a2.18,2.18,0,1,0,4.35,0V85.93A7.34,7.34,0,0,1,101,86Z" transform="translate(1.1 -32.26)"/><path class="cls-18" d="M91.4,63.1l9.67-1.39,9.67,1.39s.39,8.09.2,12.47-1.42,10.12-9.87,10.12S91.4,80.06,91.2,75.57,91.4,63.1,91.4,63.1Z" transform="translate(1.1 -32.26)"/><path class="cls-20" d="M81.34,71.78s-3.52-3.73-3-8.25S85,60.27,85,60.27,83.08,55.61,89,50.75s28.07-3.5,28.07-3.5l-4.58,6.17,6.9-1.79s-1.52,6.32-4.7,9.57a17.72,17.72,0,0,1-6.94,4.57,53.8,53.8,0,0,1-9.1,2.43C92.83,69.41,87.32,71.78,81.34,71.78Z" transform="translate(1.1 -32.26)"/><path class="cls-7" d="M114.68,61.26l0-.06c3.18-3.25,4.7-9.57,4.7-9.57-.79,3.19-5,9.83-5,9.83Z" transform="translate(1.1 -32.26)"/><path class="cls-19" d="M110.29,74.39a64,64,0,0,1-11.56.75,7.75,7.75,0,0,1-2.58-.37,3.31,3.31,0,0,1-1.59-1.21c-.07-.11-.26-.63-.45-1l-2,.54a12.09,12.09,0,0,0,3.73,9.49,8.48,8.48,0,0,0,9.61,1.29C108.37,82.28,111,78.17,110.29,74.39Z" transform="translate(1.1 -32.26)"/><path class="cls-21" d="M97.47,76.92a1.68,1.68,0,1,1-1.67-1.71A1.69,1.69,0,0,1,97.47,76.92Z" transform="translate(1.1 -32.26)"/><path class="cls-21" d="M106.53,76.69a1.68,1.68,0,1,0,1.68-1.7A1.69,1.69,0,0,0,106.53,76.69Z" transform="translate(1.1 -32.26)"/><path class="cls-15" d="M99.1,75.59a9.9,9.9,0,0,0,7.26,2.74,4.1,4.1,0,0,1-5.1,1.7A3.27,3.27,0,0,1,99.1,75.59Z" transform="translate(1.1 -32.26)"/><polygon class="cls-22" points="95.27 33.6 82.44 39.52 83.69 43.39 96.92 38.84 95.27 33.6"/><path class="cls-23" d="M93,64.05c0-.64,3.18-2.59,3.18-2.59l18.33,10.88a18.29,18.29,0,0,1-4,1.36c-1.88.33-13,1.13-14.58.65S93,65.19,93,64.05Z" transform="translate(1.1 -32.26)"/><path class="cls-24" d="M96.13,61.46c-1,1.29.67,10.2,1.94,11.55s16.21.36,17.76-.89-.35-10.6-1.25-11.93S97.26,60,96.13,61.46Z" transform="translate(1.1 -32.26)"/><path class="cls-7" d="M102.63,65.47v0a1.17,1.17,0,0,0,1.2,1l6-.34a1.16,1.16,0,0,0,1.07-1.37h0a1.15,1.15,0,0,0-1.19-1l-6,.3A1.16,1.16,0,0,0,102.63,65.47Z" transform="translate(1.1 -32.26)"/><path class="cls-7" d="M122.1,120.22c3.49-2,6.2-6.72,6.84-13.48a18.86,18.86,0,0,0-1-8.75c1.6,4.42,1.15,14-3.07,19.3A23.55,23.55,0,0,1,122.1,120.22Z" transform="translate(1.1 -32.26)"/><path class="cls-25" d="M84.19,76.75A13.14,13.14,0,0,1,77.47,89c-1.88,1-4,1.52-5.71,2.78a8.29,8.29,0,0,0-3.29,6.7,15,15,0,0,1,9-6.78c-5.85,6.82-7.76,17.54-3.74,25.61a25.78,25.78,0,0,1,.09-14.36,36.15,36.15,0,0,0,3,17.11,16.93,16.93,0,0,1,1.26-15.42c2.73-4.28,7.38-7.24,9.22-12a20.9,20.9,0,0,1-6.37,10.43,36.05,36.05,0,0,0,6-6.24,29.5,29.5,0,0,1-4.57,6.29A15.17,15.17,0,0,0,91.33,94a22.84,22.84,0,0,0,.6-13.08,24.73,24.73,0,0,1-3,7.85q.54-4.19,1.09-8.37A40,40,0,0,1,78.4,97.18c3.83-6.17,7.74-12.52,9.22-19.67a53.72,53.72,0,0,1-4.25,8.35A19.2,19.2,0,0,0,84.19,76.75Z" transform="translate(1.1 -32.26)"/><path class="cls-26" d="M108.6,95.84a7.59,7.59,0,0,0,1.4,2c2.57,2.54,6.18,3.61,8.83,6.06a12,12,0,0,1,3.33,11.55,20.57,20.57,0,0,0,.52-7.08,17.33,17.33,0,0,1-1.11,10.7,18.45,18.45,0,0,0,.11-21.41,7.22,7.22,0,0,1,4.1,5.18,16.85,16.85,0,0,0-2.8-6.9A10.49,10.49,0,0,1,126.47,99a32.67,32.67,0,0,0-9-13l9.81,7.78c-2.66-3.21-6-5.75-8.82-8.84s-5.11-7-4.91-11.18a27.76,27.76,0,0,0,2.61,18.79,23.15,23.15,0,0,1-3.84-5.92,28.65,28.65,0,0,0,7.27,12.71,21.32,21.32,0,0,1-9.34-9.6,12.73,12.73,0,0,0,2.41,7c-1.13-1.55-2.73-2.93-3.18-4.85s-1-3.89-1.35-5.84C107.38,89.09,107.15,92.93,108.6,95.84Z" transform="translate(1.1 -32.26)"/><path class="cls-27" d="M82.34,66a4.11,4.11,0,0,1,4.55-2.11l-1.66,2.83,2.9-1.54a7.2,7.2,0,0,1-1.51,3,1.51,1.51,0,0,1-1,.63c-.4,0-.82-.38-.66-.75a1.46,1.46,0,0,0-1,1.06,1.74,1.74,0,0,1-.66-1.47,6,6,0,0,0-1,2.42A7.68,7.68,0,0,1,80.77,64a5.28,5.28,0,0,0-.66,3.6,10.61,10.61,0,0,1-.72-2.87A3.61,3.61,0,0,1,80.27,62c1-1,2.53-1,3.92-1a2.63,2.63,0,0,0-2.37,1.42,6,6,0,0,1,3.16,0A5.12,5.12,0,0,0,82.34,66Z" transform="translate(1.1 -32.26)"/><path class="cls-28" d="M85.74,59.79l1.67-2.17a6.79,6.79,0,0,0-.65,3.32,8.3,8.3,0,0,1,2.95-2.13l-1.49,3.57L92,59.8A12.52,12.52,0,0,1,89.79,64c1.95-2.47,5.07-3.69,8.14-4.24s6.22-.54,9.28-1.1,6.19-1.8,8.12-4.29L104,58.21a59.36,59.36,0,0,0,9.76-8.92l-7.53,4.09A21.76,21.76,0,0,1,112.81,49a26,26,0,0,0-21.7,5.66,18.27,18.27,0,0,1,6-5.42c-1.07.59-3,.51-4.17,1a18.48,18.48,0,0,0-4.08,2.31A7.22,7.22,0,0,0,85.74,59.79Z" transform="translate(1.1 -32.26)"/><path class="cls-29" d="M92.18,51.41a7.75,7.75,0,0,0-4.89,5A36.77,36.77,0,0,0,92.18,51.41Z" transform="translate(1.1 -32.26)"/><path class="cls-29" d="M105.8,50.05a34,34,0,0,0-7.41,4.39L108,52.75a36.87,36.87,0,0,1-14.46,5.64c1-1.26,1.93-2.53,2.9-3.8,0,.54-5.29,3.18-5.85,3C94.12,53.15,100.33,50.5,105.8,50.05Z" transform="translate(1.1 -32.26)"/><path class="cls-29" d="M75,98.18a43.07,43.07,0,0,1,7.09-11.1C79.83,90.58,77.61,95,75,98.18Z" transform="translate(1.1 -32.26)"/><path class="cls-29" d="M122.17,96a28,28,0,0,1-7.26-13.44C117.69,87.07,119.66,91.4,122.17,96Z" transform="translate(1.1 -32.26)"/><path class="cls-29" d="M110.06,95.25a11.46,11.46,0,0,0,4.49,4.27,40.28,40.28,0,0,1,5.29,3.34,7.56,7.56,0,0,1,3,5.34A10.78,10.78,0,0,0,116,98.31c-1-.37-2.12-.57-3.13-1A5.51,5.51,0,0,1,110.06,95.25Z" transform="translate(1.1 -32.26)"/><path class="cls-29" d="M77.45,101.14a39.56,39.56,0,0,0,9.77-12.9A14.21,14.21,0,0,1,84.13,96C82.41,98.19,80.1,100.38,77.45,101.14Z" transform="translate(1.1 -32.26)"/><path class="cls-6" d="M85,60.27S83.08,55.61,89,50.75s28.07-3.5,28.07-3.5-19.4-.51-25.55,2.8S84.78,57.05,85,60.27Zm-5.88,2.3c1.31-3.06,5.88-2.3,5.88-2.3s-6-1.26-6.58,3.26,3,8.25,3,8.25S77.76,65.64,79.07,62.57Z" transform="translate(1.1 -32.26)"/><path class="cls-6" d="M82.59,75.65S86.82,82.9,77.45,88c-6.24,3.4-11.84,8-9.08,15.42-1.07-.87-3.42-8.75,5.23-13.68S84.07,81.49,82.59,75.65ZM76,120.89a21.24,21.24,0,0,1-4.7-7c-2.51-5.62-1.65-12.79-1.65-12.79l-.32,2a22.61,22.61,0,0,0,0,4.36C70,114.16,72.6,118.81,76,120.89Z" transform="translate(1.1 -32.26)"/><path class="cls-9" d="M99.84,134.31c-37.15,0-71.16-6.46-97.46-17.17v42H197.3v-42C171,127.85,137,134.31,99.84,134.31Z" transform="translate(1.1 -32.26)"/><path class="cls-30" d="M186.84,145.9l2.07,1.9a1.36,1.36,0,0,0,1.21.33q5.52-1.94,11-4.11c.33-.13.3-.47-.07-.76l-2.36-1.79a1.49,1.49,0,0,0-1.26-.28q-5.25,2.1-10.56,4C186.51,145.26,186.51,145.6,186.84,145.9Z" transform="translate(1.1 -32.26)"/><path class="cls-30" d="M177,144.53l1.91,1.94a1.28,1.28,0,0,0,1.15.38q8.49-2.74,16.84-6.07c.33-.13.28-.46-.09-.75l-2.35-1.79a1.44,1.44,0,0,0-1.24-.29q-8,3.2-16.2,5.83C176.66,143.88,176.65,144.22,177,144.53Z" transform="translate(1.1 -32.26)"/><path class="cls-30" d="M169.68,142.19l1.82,2a1.19,1.19,0,0,0,1.09.4q10.13-3.07,20-7c.31-.13.26-.46-.12-.74L190.17,135a1.49,1.49,0,0,0-1.22-.31q-9.51,3.81-19.25,6.76C169.4,141.55,169.39,141.88,169.68,142.19Z" transform="translate(1.1 -32.26)"/><path class="cls-30" d="M158.43,140.86l1.6,2a1.11,1.11,0,0,0,1,.45,238.41,238.41,0,0,0,27.38-9.06c.29-.12.23-.44-.15-.73l-2.35-1.79a1.48,1.48,0,0,0-1.19-.31,228.75,228.75,0,0,1-26.23,8.68C158.21,140.21,158.18,140.54,158.43,140.86Z" transform="translate(1.1 -32.26)"/><path class="cls-30" d="M166.57,134l1.92,1.94a1.23,1.23,0,0,0,1.07.4q7.38-2.38,14.63-5.27c.28-.11.21-.44-.17-.72l-2.35-1.79a1.4,1.4,0,0,0-1.16-.32q-6.93,2.76-14,5C166.24,133.34,166.27,133.67,166.57,134Z" transform="translate(1.1 -32.26)"/><path class="cls-30" d="M173.72,150.09l1.75,2a1.23,1.23,0,0,0,1.13.4q5.58-1.64,11.11-3.52c.34-.11.36-.45,0-.76l-2-1.9a1.34,1.34,0,0,0-1.19-.35q-5.32,1.81-10.7,3.39C173.48,149.43,173.44,149.77,173.72,150.09Z" transform="translate(1.1 -32.26)"/><path class="cls-30" d="M160.45,153.57l1.44,2.08a1.08,1.08,0,0,0,1,.45q5.64-1.33,11.23-2.92c.35-.1.41-.44.13-.76-.58-.66-1.15-1.33-1.73-2a1.22,1.22,0,0,0-1.1-.41q-5.39,1.53-10.82,2.82C160.3,152.91,160.22,153.24,160.45,153.57Z" transform="translate(1.1 -32.26)"/><path class="cls-30" d="M147.06,156.35l1.12,2.15a1,1,0,0,0,.95.5q5.69-1,11.34-2.33c.35-.08.45-.41.22-.74l-1.41-2.09a1.07,1.07,0,0,0-1-.46q-5.43,1.23-10.92,2.24C147,155.68,146.88,156,147.06,156.35Z" transform="translate(1.1 -32.26)"/><path class="cls-30" d="M133.57,158.43c.27.73.54,1.46.8,2.2a.87.87,0,0,0,.87.55q5.72-.75,11.41-1.74a.47.47,0,0,0,.32-.73l-1.09-2.15a1,1,0,0,0-.93-.51q-5.47.94-11,1.67A.5.5,0,0,0,133.57,158.43Z" transform="translate(1.1 -32.26)"/><path class="cls-30" d="M120,159.81l.48,2.23a.76.76,0,0,0,.78.59q5.75-.45,11.46-1.14a.5.5,0,0,0,.42-.71c-.26-.73-.51-1.47-.77-2.2a.84.84,0,0,0-.84-.56c-3.67.44-7.36.81-11,1.1A.55.55,0,0,0,120,159.81Z" transform="translate(1.1 -32.26)"/><path class="cls-30" d="M106.44,160.49l.15,2.24a.67.67,0,0,0,.68.63q5.76-.15,11.5-.55a.54.54,0,0,0,.51-.68c-.14-.75-.29-1.49-.44-2.23a.74.74,0,0,0-.75-.6c-3.69.25-7.38.43-11.08.52A.6.6,0,0,0,106.44,160.49Z" transform="translate(1.1 -32.26)"/><path class="cls-30" d="M92.84,160.46l-.18,2.25a.61.61,0,0,0,.6.66c3.83.1,7.67.11,11.5,0a.62.62,0,0,0,.61-.66l-.12-2.25a.66.66,0,0,0-.66-.63c-3.69.06-7.39,0-11.08,0A.66.66,0,0,0,92.84,160.46Z" transform="translate(1.1 -32.26)"/><path class="cls-30" d="M164.21,148.23l1.6,2a1.12,1.12,0,0,0,1.06.43c3.59-.95,7.15-2,10.71-3.08.33-.1.35-.44,0-.75l-1.89-2a1.24,1.24,0,0,0-1.11-.38q-5.13,1.59-10.3,3C164,147.58,164,147.91,164.21,148.23Z" transform="translate(1.1 -32.26)"/><path class="cls-31" d="M157.46,145.53l1.5,2.06a1.1,1.1,0,0,0,1,.46q5.16-1.29,10.28-2.78c.31-.09.34-.42.05-.74l-1.79-2a1.17,1.17,0,0,0-1.06-.41q-4.9,1.44-9.86,2.66C157.28,144.87,157.23,145.2,157.46,145.53Z" transform="translate(1.1 -32.26)"/><path class="cls-30" d="M152.16,138l1.5,2.07a1.06,1.06,0,0,0,1,.46q6.45-1.59,12.82-3.58c.29-.09.28-.41,0-.72l-1.89-2a1.21,1.21,0,0,0-1-.41q-6.09,1.89-12.26,3.42C152,137.39,151.92,137.71,152.16,138Z" transform="translate(1.1 -32.26)"/><path class="cls-30" d="M137.73,141.07l1.09,2.15a.9.9,0,0,0,.84.53q6.51-1.16,13-2.7c.29-.07.33-.39.09-.72l-1.47-2.07a1.06,1.06,0,0,0-.93-.48q-6.17,1.47-12.4,2.58C137.65,140.41,137.56,140.73,137.73,141.07Z" transform="translate(1.1 -32.26)"/><path class="cls-30" d="M47.19,137.12q-6-1.5-11.85-3.34a1.2,1.2,0,0,0-1,.4c-.63.66-1.26,1.31-1.9,2-.3.31-.31.63,0,.72q6.16,1.94,12.4,3.5a1,1,0,0,0,1-.46c.51-.69,1-1.37,1.52-2.06C47.5,137.51,47.47,137.19,47.19,137.12Z" transform="translate(1.1 -32.26)"/><path class="cls-30" d="M61.65,140.24c-4.15-.74-8.29-1.62-12.4-2.61a1,1,0,0,0-.93.47l-1.5,2.07c-.23.33-.19.65.1.72q6.45,1.56,13,2.74a.91.91,0,0,0,.85-.53l1.1-2.15C62,140.61,61.93,140.3,61.65,140.24Z" transform="translate(1.1 -32.26)"/><path class="cls-30" d="M76.07,142.35q-6.27-.71-12.51-1.77a.87.87,0,0,0-.81.53l-1.08,2.16c-.17.34-.08.66.22.71,4.34.74,8.71,1.36,13.08,1.85a.77.77,0,0,0,.73-.58l.69-2.21C76.49,142.69,76.35,142.38,76.07,142.35Z" transform="translate(1.1 -32.26)"/><path class="cls-31" d="M77.24,143.13l-.66,2.22c-.11.35,0,.66.34.69a226.43,226.43,0,0,0,60.74-1.95c.29-.05.39-.36.23-.71-.36-.72-.71-1.44-1.06-2.16a.89.89,0,0,0-.82-.53,216.49,216.49,0,0,1-58.07,1.86A.75.75,0,0,0,77.24,143.13Z" transform="translate(1.1 -32.26)"/><path class="cls-31" d="M151.45,151.23l1.28,2.11a1,1,0,0,0,1,.49q5.41-1.14,10.81-2.52c.33-.08.4-.42.15-.74l-1.57-2a1.11,1.11,0,0,0-1-.44q-5.19,1.32-10.41,2.42C151.34,150.57,151.25,150.89,151.45,151.23Z" transform="translate(1.1 -32.26)"/><path class="cls-30" d="M138.59,153.55l1,2.18a.91.91,0,0,0,.89.53q5.46-.85,10.9-1.95c.33-.06.44-.39.24-.73-.41-.71-.83-1.41-1.25-2.12a1,1,0,0,0-1-.49q-5.22,1-10.48,1.87A.47.47,0,0,0,138.59,153.55Z" transform="translate(1.1 -32.26)"/><path class="cls-30" d="M125.65,155.21c.22.74.43,1.48.64,2.21a.8.8,0,0,0,.8.58q5.49-.57,11-1.38a.48.48,0,0,0,.34-.72l-.93-2.17a.87.87,0,0,0-.85-.54q-5.27.76-10.55,1.32A.52.52,0,0,0,125.65,155.21Z" transform="translate(1.1 -32.26)"/><path class="cls-30" d="M112.67,156.19c.1.75.21,1.49.31,2.24a.7.7,0,0,0,.71.61q5.5-.28,11-.8a.52.52,0,0,0,.44-.7c-.2-.74-.41-1.48-.61-2.22a.78.78,0,0,0-.77-.58q-5.28.49-10.58.78A.55.55,0,0,0,112.67,156.19Z" transform="translate(1.1 -32.26)"/><path class="cls-30" d="M99.66,156.5c0,.75,0,1.5,0,2.25,0,.36.49.32.61.65,5.13,14.15,8.88,14.84,11-.24,0-.34.58-.32.54-.67-.1-.75-.19-1.5-.29-2.24a.69.69,0,0,0-.67-.62c-3.54.15-7.07.23-10.61.23A.62.62,0,0,0,99.66,156.5Z" transform="translate(1.1 -32.26)"/><path class="cls-30" d="M86.65,156.15c-.12.74-.23,1.49-.34,2.23a.57.57,0,0,0,.52.68c3.67.19,7.35.3,11,.33a.65.65,0,0,0,.63-.64c0-.75,0-1.5,0-2.25a.62.62,0,0,0-.58-.65c-3.54,0-7.07-.14-10.61-.32A.7.7,0,0,0,86.65,156.15Z" transform="translate(1.1 -32.26)"/><path class="cls-30" d="M73.66,155.12,73,157.33a.52.52,0,0,0,.43.7q5.49.57,11,.9a.71.71,0,0,0,.72-.61l.37-2.24a.55.55,0,0,0-.49-.68q-5.3-.32-10.58-.86A.8.8,0,0,0,73.66,155.12Z" transform="translate(1.1 -32.26)"/><path class="cls-30" d="M60.73,153.41c-.33.73-.65,1.45-1,2.17a.48.48,0,0,0,.33.73q5.46.84,11,1.46a.81.81,0,0,0,.81-.57l.69-2.21a.5.5,0,0,0-.39-.7q-5.28-.58-10.54-1.41A.91.91,0,0,0,60.73,153.41Z" transform="translate(1.1 -32.26)"/><path class="cls-31" d="M47.88,151l-1.31,2.11c-.2.34-.1.67.23.74q5.43,1.13,10.89,2a.91.91,0,0,0,.9-.52c.34-.72.68-1.44,1-2.17.16-.34,0-.66-.29-.72-3.5-.57-7-1.23-10.47-1.95A1,1,0,0,0,47.88,151Z" transform="translate(1.1 -32.26)"/><path class="cls-30" d="M146.82,143.59l1.29,2.12a1,1,0,0,0,.92.49q5-1,9.87-2.29c.3-.08.35-.41.09-.74l-1.57-2a1.09,1.09,0,0,0-1-.46c-3.14.8-6.29,1.54-9.45,2.2C146.69,142.93,146.62,143.25,146.82,143.59Z" transform="translate(1.1 -32.26)"/><path class="cls-30" d="M135.12,145.71l1,2.17a.87.87,0,0,0,.84.54c3.32-.52,6.64-1.11,9.94-1.78.31-.06.4-.38.2-.72l-1.26-2.12a.94.94,0,0,0-.89-.5c-3.17.63-6.34,1.2-9.53,1.7C135.09,145,135,145.36,135.12,145.71Z" transform="translate(1.1 -32.26)"/><path class="cls-30" d="M123.35,147.21c.22.74.43,1.48.64,2.22a.77.77,0,0,0,.74.58c3.35-.35,6.68-.77,10-1.26.31-.05.44-.36.29-.71l-.93-2.18a.87.87,0,0,0-.81-.55c-3.19.47-6.38.88-9.58,1.21C123.41,146.55,123.25,146.86,123.35,147.21Z" transform="translate(1.1 -32.26)"/><path class="cls-30" d="M111.54,148.11c.1.74.21,1.49.31,2.24a.67.67,0,0,0,.65.61q5-.26,10-.74c.31,0,.48-.33.38-.69-.2-.74-.41-1.48-.61-2.22a.75.75,0,0,0-.71-.58c-3.21.3-6.41.54-9.63.7A.55.55,0,0,0,111.54,148.11Z" transform="translate(1.1 -32.26)"/><path class="cls-30" d="M99.7,148.39c0,.75,0,1.5,0,2.25a.59.59,0,0,0,.55.65c3.36,0,6.71-.08,10.07-.22a.56.56,0,0,0,.48-.67c-.1-.75-.19-1.5-.29-2.24a.67.67,0,0,0-.62-.63c-3.21.14-6.43.21-9.64.21A.6.6,0,0,0,99.7,148.39Z" transform="translate(1.1 -32.26)"/><path class="cls-30" d="M87.86,148.06c-.11.75-.22,1.5-.34,2.24A.56.56,0,0,0,88,151q5,.26,10.06.3a.62.62,0,0,0,.57-.65c0-.75,0-1.49,0-2.24a.59.59,0,0,0-.53-.65q-4.81,0-9.64-.29A.67.67,0,0,0,87.86,148.06Z" transform="translate(1.1 -32.26)"/><path class="cls-30" d="M76.05,147.13l-.66,2.21a.5.5,0,0,0,.37.7q5,.51,10,.81a.69.69,0,0,0,.67-.61l.36-2.23a.53.53,0,0,0-.43-.68q-4.81-.29-9.62-.78A.76.76,0,0,0,76.05,147.13Z" transform="translate(1.1 -32.26)"/><path class="cls-30" d="M64.28,145.58c-.33.72-.66,1.45-1,2.17-.16.34,0,.66.27.71,3.33.52,6.66,1,10,1.34a.79.79,0,0,0,.76-.57c.23-.74.45-1.48.68-2.21.11-.36,0-.67-.33-.7-3.2-.36-6.4-.79-9.58-1.28A.85.85,0,0,0,64.28,145.58Z" transform="translate(1.1 -32.26)"/><path class="cls-30" d="M52.58,143.42l-1.3,2.11c-.21.34-.13.66.18.73q4.95,1,9.93,1.85a.87.87,0,0,0,.85-.53c.34-.72.68-1.44,1-2.16.16-.35,0-.67-.24-.72-3.18-.52-6.36-1.11-9.52-1.78A1,1,0,0,0,52.58,143.42Z" transform="translate(1.1 -32.26)"/><path class="cls-31" d="M35.13,148c-.54.68-1.08,1.36-1.63,2-.25.33-.19.66.14.75q5.37,1.41,10.8,2.6a1,1,0,0,0,1-.47c.44-.7.88-1.41,1.33-2.11.21-.33.12-.66-.2-.73q-5.22-1.14-10.39-2.5A1.11,1.11,0,0,0,35.13,148Z" transform="translate(1.1 -32.26)"/><path class="cls-30" d="M41,140.65l-1.62,2c-.26.32-.22.65.08.73q4.91,1.29,9.86,2.37a1,1,0,0,0,.93-.48c.45-.7.89-1.41,1.33-2.11.22-.33.15-.65-.14-.72q-4.74-1-9.45-2.27A1.1,1.1,0,0,0,41,140.65Z" transform="translate(1.1 -32.26)"/><path class="cls-30" d="M18.55,128.54l-2.36,1.79c-.37.28-.45.61-.17.72q7.11,2.83,14.36,5.18a1.25,1.25,0,0,0,1.07-.4l1.92-1.94c.31-.31.34-.63.07-.72q-6.93-2.23-13.73-4.95A1.39,1.39,0,0,0,18.55,128.54Z" transform="translate(1.1 -32.26)"/><path class="cls-30" d="M22.5,144.28l-1.93,1.95c-.31.31-.29.64,0,.75q5.32,1.7,10.69,3.17a1.17,1.17,0,0,0,1.08-.42l1.65-2c.26-.32.21-.65-.11-.74q-5.16-1.41-10.28-3.05A1.3,1.3,0,0,0,22.5,144.28Z" transform="translate(1.1 -32.26)"/><path class="cls-31" d="M14.3,131.77l-2.36,1.79c-.37.29-.44.61-.14.73a235.56,235.56,0,0,0,25.5,8.55,1.11,1.11,0,0,0,1-.43l1.65-2c.26-.32.24-.65,0-.73a227.43,227.43,0,0,1-24.43-8.19A1.46,1.46,0,0,0,14.3,131.77Z" transform="translate(1.1 -32.26)"/><path class="cls-30" d="M5.8,138.24,3.45,140c-.38.29-.42.62-.1.75q7.41,3,14.94,5.44a1.27,1.27,0,0,0,1.15-.36l2-1.93c.31-.31.31-.64,0-.75Q14.17,140.8,7,138A1.44,1.44,0,0,0,5.8,138.24Z" transform="translate(1.1 -32.26)"/><path class="cls-30" d="M79.25,159.74l-.5,2.22a.54.54,0,0,0,.5.69q5.75.45,11.49.64a.69.69,0,0,0,.71-.62c.06-.75.13-1.5.2-2.24a.6.6,0,0,0-.56-.67c-3.7-.13-7.39-.33-11.08-.62A.77.77,0,0,0,79.25,159.74Z" transform="translate(1.1 -32.26)"/><path class="cls-30" d="M65.71,158.31l-.83,2.19a.51.51,0,0,0,.41.72q5.71.74,11.45,1.23a.78.78,0,0,0,.8-.59c.17-.74.35-1.48.52-2.22a.52.52,0,0,0-.46-.69q-5.53-.48-11-1.19A.84.84,0,0,0,65.71,158.31Z" transform="translate(1.1 -32.26)"/><path class="cls-30" d="M52.23,156.18c-.38.71-.76,1.43-1.15,2.14a.47.47,0,0,0,.31.74q5.69,1,11.4,1.82a.86.86,0,0,0,.88-.54c.29-.73.57-1.46.85-2.19a.48.48,0,0,0-.37-.71q-5.51-.76-11-1.76A1,1,0,0,0,52.23,156.18Z" transform="translate(1.1 -32.26)"/><path class="cls-30" d="M38.85,153.35l-1.47,2.08c-.23.33-.14.66.21.74q5.64,1.34,11.32,2.42a1,1,0,0,0,1-.49L51.05,156c.19-.34.07-.67-.27-.73q-5.47-1-10.91-2.33A1.07,1.07,0,0,0,38.85,153.35Z" transform="translate(1.1 -32.26)"/><path class="cls-30" d="M25.59,149.82c-.6.66-1.19,1.33-1.78,2-.29.32-.24.65.11.76q5.58,1.62,11.21,3a1.12,1.12,0,0,0,1.06-.44l1.49-2.07c.24-.33.16-.66-.18-.74-3.61-.89-7.22-1.86-10.8-2.91A1.22,1.22,0,0,0,25.59,149.82Z" transform="translate(1.1 -32.26)"/><path class="cls-30" d="M1.55,141.47-.8,143.26c-.38.29-.41.63-.07.76q11,4.41,22.35,7.82a1.25,1.25,0,0,0,1.15-.38l1.8-2c.29-.32.25-.65-.08-.75q-10.87-3.28-21.53-7.54A1.51,1.51,0,0,0,1.55,141.47Z" transform="translate(1.1 -32.26)"/><path class="cls-30" d="M10.05,135c-.79.59-1.57,1.19-2.35,1.79-.38.28-.43.61-.12.74q10.61,4.23,21.48,7.46a1.21,1.21,0,0,0,1.08-.4l1.79-2c.28-.32.26-.65,0-.74q-10.42-3.1-20.63-7.17A1.47,1.47,0,0,0,10.05,135Z" transform="translate(1.1 -32.26)"/><path class="cls-30" d="M145.13,148.21c.4.71.79,1.42,1.18,2.13a1,1,0,0,0,.92.51q5.21-1,10.37-2.23c.32-.08.39-.41.16-.74l-1.47-2.07a1,1,0,0,0-1-.46q-5,1.17-10,2.13C145.05,147.54,145,147.87,145.13,148.21Z" transform="translate(1.1 -32.26)"/><path class="cls-31" d="M132.71,150.23c.29.73.57,1.46.85,2.19a.84.84,0,0,0,.83.55q5.24-.72,10.45-1.68c.32,0,.43-.38.25-.72L144,148.43a1,1,0,0,0-.89-.52q-5,.92-10,1.62C132.72,149.57,132.58,149.88,132.71,150.23Z" transform="translate(1.1 -32.26)"/><path class="cls-30" d="M120.22,151.61c.18.74.35,1.48.53,2.22a.73.73,0,0,0,.74.59c3.5-.3,7-.67,10.5-1.13a.48.48,0,0,0,.35-.7c-.28-.73-.55-1.47-.82-2.2a.83.83,0,0,0-.8-.56q-5,.66-10.08,1.09A.52.52,0,0,0,120.22,151.61Z" transform="translate(1.1 -32.26)"/><path class="cls-30" d="M107.7,152.33c.06.75.13,1.49.2,2.24a.66.66,0,0,0,.64.63c3.51-.12,7-.31,10.53-.58a.53.53,0,0,0,.45-.69c-.17-.74-.33-1.48-.49-2.23a.73.73,0,0,0-.71-.59c-3.37.25-6.74.44-10.11.55A.57.57,0,0,0,107.7,152.33Z" transform="translate(1.1 -32.26)"/><path class="cls-30" d="M95.15,152.4c0,.75-.08,1.49-.13,2.24a.59.59,0,0,0,.56.66c3.51.07,7,0,10.54,0a.58.58,0,0,0,.54-.66c0-.75-.11-1.5-.16-2.25a.66.66,0,0,0-.62-.63c-3.37.08-6.75.09-10.12,0A.65.65,0,0,0,95.15,152.4Z" transform="translate(1.1 -32.26)"/><path class="cls-30" d="M82.62,151.81c-.15.75-.3,1.49-.46,2.23a.54.54,0,0,0,.46.69c3.51.24,7,.42,10.54.52a.66.66,0,0,0,.63-.64l.16-2.24a.57.57,0,0,0-.52-.66c-3.37-.1-6.74-.26-10.11-.5A.73.73,0,0,0,82.62,151.81Z" transform="translate(1.1 -32.26)"/><path class="cls-30" d="M70.12,150.58l-.78,2.19a.49.49,0,0,0,.36.71q5.25.65,10.5,1.07a.73.73,0,0,0,.73-.6c.17-.74.33-1.48.49-2.23A.51.51,0,0,0,81,151q-5.06-.4-10.09-1A.83.83,0,0,0,70.12,150.58Z" transform="translate(1.1 -32.26)"/><path class="cls-30" d="M57.69,148.69l-1.11,2.14c-.18.35-.06.67.26.73q5.22.91,10.45,1.61a.81.81,0,0,0,.82-.55l.82-2.2c.13-.35,0-.66-.33-.7q-5-.67-10-1.55A.89.89,0,0,0,57.69,148.69Z" transform="translate(1.1 -32.26)"/><path class="cls-30" d="M45.33,146.14c-.47.7-.95,1.39-1.43,2.09-.23.33-.15.66.17.73,3.45.79,6.91,1.52,10.38,2.16a1,1,0,0,0,.91-.51l1.14-2.14c.18-.34.08-.66-.23-.72q-5-.93-10-2.08A1.05,1.05,0,0,0,45.33,146.14Z" transform="translate(1.1 -32.26)"/><path class="cls-30" d="M33.09,143l-1.75,2c-.28.31-.25.65.07.74q5.11,1.47,10.28,2.71a1.06,1.06,0,0,0,1-.46c.49-.69,1-1.38,1.46-2.08.24-.33.18-.65-.13-.73-3.3-.79-6.6-1.66-9.87-2.6A1.17,1.17,0,0,0,33.09,143Z" transform="translate(1.1 -32.26)"/><path class="cls-32" d="M145.42,144.49l.21-6.1-.28-2.14s-2,4.55-3.63,5.95c-1,.83-3.94,1.56-6.14,2a2.91,2.91,0,0,1-3.36-2.05h0a3,3,0,0,1,1.52-3.5l3.14-1.54s6-9.63,7.59-11.69,9.17-5.3,16.25-4.89,10.51,4.46,12.37,5.84l2.63,1.94a3.12,3.12,0,0,1,.78,4.16h0a3,3,0,0,1-4.05,1l-5.24-3a33.38,33.38,0,0,1-14.77,5.85,70,70,0,0,1,.54,8.27,3.79,3.79,0,0,1-4.22,3.78h0A3.81,3.81,0,0,1,145.42,144.49Z" transform="translate(1.1 -32.26)"/><path class="cls-32" d="M167.26,127l2,3.07a8.12,8.12,0,0,1,1.31,5.1l-.16,2.1a3.85,3.85,0,0,1-3.53,3.56h0a3.8,3.8,0,0,1-3.75-2.31l-3.15-7.3Z" transform="translate(1.1 -32.26)"/><path class="cls-32" d="M154.67,135.43l3.71,8.55a4,4,0,0,0,5.32,2.15h0a4.15,4.15,0,0,0,2.14-5.47l-3.69-8.56a4.06,4.06,0,0,0-5.29-2.17h0A4.17,4.17,0,0,0,154.67,135.43Z" transform="translate(1.1 -32.26)"/><path class="cls-33" d="M146.07,142.07a9.89,9.89,0,0,0,.34,3.56,2.88,2.88,0,0,0,5.65,0,9.94,9.94,0,0,0,.28-4.21l-.27-3.47c-.15-2-.91-4-3.19-4.08-2.06,0-2.61,1.66-2.66,3.41Z" transform="translate(1.1 -32.26)"/><path class="cls-33" d="M155.6,134.41a7.54,7.54,0,0,0,1.05,3.57l2,4.19a9.3,9.3,0,0,0,1.31,2.16,3,3,0,0,0,2.18,1.11A3.12,3.12,0,0,0,165,142.6a8.58,8.58,0,0,0-.83-4.23q-1-2.6-2.2-5.08c-.7-1.47-1.88-2.66-3.65-2.25A4.15,4.15,0,0,0,155.6,134.41Z" transform="translate(1.1 -32.26)"/><path class="cls-33" d="M163.19,130.52a7.86,7.86,0,0,0,.75,3.57c.48,1.25.95,2.5,1.43,3.76a6.1,6.1,0,0,0,1,1.87,1.94,1.94,0,0,0,1.87.71,2,2,0,0,0,1.25-1.18,5.79,5.79,0,0,0,.34-1.76,14.75,14.75,0,0,0-.31-5.66,5.87,5.87,0,0,0-3.23-3.82C164.76,127.48,163.35,129.06,163.19,130.52Z" transform="translate(1.1 -32.26)"/><path class="cls-33" d="M169.13,128.16a4.67,4.67,0,0,0,.77,2,6.66,6.66,0,0,0,2,2.16,3.54,3.54,0,0,0,2.78.54,2.49,2.49,0,0,0,1.84-2.06,2.87,2.87,0,0,0-.74-2,7.92,7.92,0,0,0-1.69-1.41,8.93,8.93,0,0,0-2-1.17C170.44,125.6,169,126.25,169.13,128.16Z" transform="translate(1.1 -32.26)"/><path class="cls-34" d="M170.12,127.49a2.67,2.67,0,0,0,.57,1.63,7.41,7.41,0,0,0,1.23,1.21,7.1,7.1,0,0,0,1.51,1.06,2.14,2.14,0,0,0,1.73.11,1.5,1.5,0,0,0,.9-1.49,2.27,2.27,0,0,0-.7-1.26C174.5,127.82,170.21,124.38,170.12,127.49Z" transform="translate(1.1 -32.26)"/><path class="cls-34" d="M165.18,132.48a7.68,7.68,0,0,0,.15,2.08c.16.92.31,1.84.47,2.76a5.43,5.43,0,0,0,.44,1.6,1.78,1.78,0,0,0,1.25,1,1.69,1.69,0,0,0,1.5-.75,4.07,4.07,0,0,0,.61-1.64,12.91,12.91,0,0,0,.14-3.67,4.73,4.73,0,0,0-.93-2.59C167.45,129.64,165.4,130.53,165.18,132.48Z" transform="translate(1.1 -32.26)"/><path class="cls-34" d="M157.66,138a6.19,6.19,0,0,0,1,2.78L160,143.3a3.47,3.47,0,0,0,1.47,1.64,2.06,2.06,0,0,0,2.34-.74,3.49,3.49,0,0,0,.57-2.54,9.88,9.88,0,0,0-.77-2.55,8.31,8.31,0,0,0-1.5-2.74C160.52,134.62,157.62,135.37,157.66,138Z" transform="translate(1.1 -32.26)"/><path class="cls-34" d="M146.87,138.6a4.25,4.25,0,0,0-.34,2.15l.06,3.3a4.07,4.07,0,0,0,.9,3.07,2.4,2.4,0,0,0,2.89.06,4,4,0,0,0,1.56-2.64,12.3,12.3,0,0,0,0-3.15,5.9,5.9,0,0,0-.75-2.94C150.34,137.15,147.65,137.17,146.87,138.6Z" transform="translate(1.1 -32.26)"/><path class="cls-33" d="M134.81,139a6,6,0,0,0-1.37,1,1.72,1.72,0,0,0-.43,1.61c.3.92,1.49,1.12,2.45,1a10.56,10.56,0,0,0,6.38-2.91,6,6,0,0,0,2.06-4.15,3.53,3.53,0,0,0-1.38-2.76c-1.16-.83-1.83-.11-2.49.88A18,18,0,0,1,134.81,139Z" transform="translate(1.1 -32.26)"/><path class="cls-34" d="M134.32,140.17c-.36.26-.76.6-.74,1.05a.89.89,0,0,0,.63.75,2,2,0,0,0,1,.05,7.91,7.91,0,0,0,3.86-1.69,1.66,1.66,0,0,0,.79-1.42C139.44,136.28,135.06,139.65,134.32,140.17Z" transform="translate(1.1 -32.26)"/><path class="cls-32" d="M53.43,145.29l.36-6.09.47-2.11s1.53,4.73,3.06,6.27c.92.93,3.78,1.94,5.93,2.6a2.88,2.88,0,0,0,3.53-1.71h0a3,3,0,0,0-1.19-3.63l-3-1.83s-5.1-10.17-6.46-12.38-8.64-6.15-15.72-6.42-10.89,3.43-12.87,4.63l-2.8,1.68a3.12,3.12,0,0,0-1.16,4.07h0a3,3,0,0,0,3.94,1.41L33,129.3a33.33,33.33,0,0,0,14.16,7.24,69.64,69.64,0,0,0-1.32,8.19,3.81,3.81,0,0,0,3.85,4.17h0A3.82,3.82,0,0,0,53.43,145.29Z" transform="translate(1.1 -32.26)"/><path class="cls-32" d="M33.32,125.78,31,128.64a8.15,8.15,0,0,0-1.77,5l0,2.11a3.86,3.86,0,0,0,3.18,3.88h0a3.8,3.8,0,0,0,4-1.94l3.81-7Z" transform="translate(1.1 -32.26)"/><path class="cls-32" d="M45.06,135.38l-4.48,8.17a4.05,4.05,0,0,1-5.51,1.62h0a4.18,4.18,0,0,1-1.62-5.65l4.47-8.17a4,4,0,0,1,5.47-1.65h0A4.18,4.18,0,0,1,45.06,135.38Z" transform="translate(1.1 -32.26)"/><path class="cls-33" d="M53,142.82a9.9,9.9,0,0,1-.66,3.51,3.26,3.26,0,0,1-2.69,2,3.29,3.29,0,0,1-2.94-2.6,9.87,9.87,0,0,1,.12-4.22c.19-1.14.39-2.29.59-3.43.34-2,1.28-3.92,3.56-3.75,2.05.16,2.44,1.9,2.33,3.65S53.1,141.22,53,142.82Z" transform="translate(1.1 -32.26)"/><path class="cls-33" d="M44.23,134.28a7.49,7.49,0,0,1-1.38,3.46l-2.42,4a9.11,9.11,0,0,1-1.51,2,3,3,0,0,1-2.27.9,3.14,3.14,0,0,1-2.49-3.1,8.68,8.68,0,0,1,1.22-4.13c.82-1.65,1.71-3.26,2.66-4.85.84-1.39,2.13-2.46,3.84-1.88A4.18,4.18,0,0,1,44.23,134.28Z" transform="translate(1.1 -32.26)"/><path class="cls-33" d="M37,129.68A7.83,7.83,0,0,1,36,133.16l-1.78,3.6A5.87,5.87,0,0,1,33,138.53a2,2,0,0,1-1.94.54,2,2,0,0,1-1.13-1.3,5.89,5.89,0,0,1-.18-1.78,14.92,14.92,0,0,1,.85-5.61,5.8,5.8,0,0,1,3.56-3.5C35.75,126.5,37,128.21,37,129.68Z" transform="translate(1.1 -32.26)"/><path class="cls-33" d="M31.35,126.76a4.66,4.66,0,0,1-1,1.94,6.82,6.82,0,0,1-2.15,2,3.53,3.53,0,0,1-2.82.27,2.5,2.5,0,0,1-1.64-2.23,2.88,2.88,0,0,1,.92-2,8.67,8.67,0,0,1,1.81-1.24,9.58,9.58,0,0,1,2.14-1C30.28,124.09,31.68,124.87,31.35,126.76Z" transform="translate(1.1 -32.26)"/><path class="cls-34" d="M30.42,126a2.72,2.72,0,0,1-.72,1.58,7.29,7.29,0,0,1-1.34,1.08,7,7,0,0,1-1.59.91,2.19,2.19,0,0,1-1.74-.05,1.51,1.51,0,0,1-.76-1.57,2.28,2.28,0,0,1,.81-1.19C26,125.91,30.62,122.89,30.42,126Z" transform="translate(1.1 -32.26)"/><path class="cls-34" d="M34.87,131.44a7.28,7.28,0,0,1-.34,2.06l-.72,2.7a5.43,5.43,0,0,1-.6,1.54,1.52,1.52,0,0,1-2.75,0A4,4,0,0,1,30,136a12.84,12.84,0,0,1,.2-3.66,4.72,4.72,0,0,1,1.16-2.49C32.88,128.4,34.83,129.48,34.87,131.44Z" transform="translate(1.1 -32.26)"/><path class="cls-34" d="M41.84,137.69a6,6,0,0,1-1.26,2.68L39,142.7a3.45,3.45,0,0,1-1.62,1.5,2.06,2.06,0,0,1-2.26-1,3.49,3.49,0,0,1-.33-2.58,10.76,10.76,0,0,1,1-2.47,8.53,8.53,0,0,1,1.75-2.58C39.31,134,42.13,135,41.84,137.69Z" transform="translate(1.1 -32.26)"/><path class="cls-34" d="M52.54,139.29a4.34,4.34,0,0,1,.13,2.18l-.36,3.27a4.11,4.11,0,0,1-1.19,3,2.41,2.41,0,0,1-2.89-.21,4.12,4.12,0,0,1-1.3-2.78,12.74,12.74,0,0,1,.26-3.14,6,6,0,0,1,1-2.86C49.21,137.51,51.88,137.79,52.54,139.29Z" transform="translate(1.1 -32.26)"/><path class="cls-33" d="M64.5,140.82A6.09,6.09,0,0,1,65.77,142a1.72,1.72,0,0,1,.28,1.64c-.39.89-1.59,1-2.53.81a10.56,10.56,0,0,1-6.09-3.52,6,6,0,0,1-1.66-4.32A3.48,3.48,0,0,1,57.4,134c1.23-.72,1.83.07,2.4,1.12A18,18,0,0,0,64.5,140.82Z" transform="translate(1.1 -32.26)"/><path class="cls-34" d="M64.88,142.06c.34.29.7.67.64,1.11a.89.89,0,0,1-.7.69,2,2,0,0,1-1-.05,8,8,0,0,1-3.69-2.05,1.68,1.68,0,0,1-.65-1.49C60.15,137.69,64.19,141.47,64.88,142.06Z" transform="translate(1.1 -32.26)"/><path class="cls-6" d="M39.09,63.59A5.58,5.58,0,0,0,37,66.22c-.58,1.84.59,3.25,2.28,3,2.05-.29,4.2-2.51,6.42-2a2.82,2.82,0,0,1,2.22,2.38,22.83,22.83,0,0,1,0,3.79,4.74,4.74,0,0,0,1.2,3.49c.93.85,3.35.76,3.92-.37-.39,1.44-2,1.68-3.21,1.53a3.46,3.46,0,0,1-2.79-2.23,10.14,10.14,0,0,1-.27-3.22,3.66,3.66,0,0,0-1.12-2.91c-2.23-1.73-4.92,2.39-7.81,2.49a4.21,4.21,0,0,1-4.29-3.57c-.17-2,.69-4,1.53-5.89C36.29,62.86,37.9,63.51,39.09,63.59Z" transform="translate(1.1 -32.26)"/><polygon class="cls-6" points="53.55 8.97 52.9 6.52 45.12 8.65 41.32 2.21 39.91 2.64 43.27 9.16 36.08 11.12 36.27 12.33 44.11 10.8 48.51 19.35 50.34 17.5 46.16 10.41 53.55 8.97"/><path class="cls-6" d="M41.76,84.86a6.4,6.4,0,1,0,6.3,6.39A6.34,6.34,0,0,0,41.76,84.86Zm-.36,11a4.72,4.72,0,1,1,4.65-4.72A4.68,4.68,0,0,1,41.4,95.85Z" transform="translate(1.1 -32.26)"/><path class="cls-7" d="M156.05,100.42a6.4,6.4,0,1,0,6.3,6.39A6.34,6.34,0,0,0,156.05,100.42Zm-.36,11a4.72,4.72,0,1,1,4.65-4.72A4.68,4.68,0,0,1,155.69,111.41Z" transform="translate(1.1 -32.26)"/><polygon class="cls-7" points="132.84 17.5 134.21 18.91 142.66 5.07 141.01 3.46 132.84 17.5"/><path class="cls-7" d="M138.16,72.77c-.17-1,1-1.82,2.05-1.7a6.82,6.82,0,0,1,2.72,1.38,3.25,3.25,0,0,0,2.88.66c1.36-.53,1.62-2.36,1.57-3.84s-.06-3.25,1.14-4.1,2.88-.22,3.94.8c.72.69,1.21,1.65,2,2.3s1.35,1.6,2.3,2a1.72,1.72,0,0,0,2.15-.8c.6-1,.24-2.24.07-3.32a8.13,8.13,0,0,1,.38-3.94,7.18,7.18,0,0,1,.94-1.8,11.58,11.58,0,0,1,1.09-1.11c.53.81,1.59,2,2.11,2.8-1.53,1.15-1.71,2.76-1.55,4.69s-.17,4.46-1.62,5.71a3.64,3.64,0,0,1-3.75.46,8.72,8.72,0,0,1-3.75-3.8c-.62-1-2.29-3.93-3.61-2.14-.91,1.24-.42,3.12-1,5.21a3.28,3.28,0,0,1-4.52,2c-1-.49-1.71-1.39-2.67-1.92S138.63,71.77,138.16,72.77Z" transform="translate(1.1 -32.26)"/><path class="cls-35" d="M141.46,89.54a1.06,1.06,0,1,1-1.05-1.07A1.06,1.06,0,0,1,141.46,89.54Z" transform="translate(1.1 -32.26)"/><ellipse class="cls-35" cx="143" cy="53.79" rx="1.05" ry="1.07"/><path class="cls-35" d="M145.72,89.26a1.05,1.05,0,1,1-1.05-1.07A1.06,1.06,0,0,1,145.72,89.26Z" transform="translate(1.1 -32.26)"/><path class="cls-35" d="M156.65,43.18a1.06,1.06,0,1,1-1.05-1.06A1.06,1.06,0,0,1,156.65,43.18Z" transform="translate(1.1 -32.26)"/><path class="cls-35" d="M162.4,42.12a1.06,1.06,0,1,1-2.11,0,1.06,1.06,0,1,1,2.11,0Z" transform="translate(1.1 -32.26)"/><path class="cls-35" d="M133.05,34.2A1.06,1.06,0,1,1,132,33.13,1.06,1.06,0,0,1,133.05,34.2Z" transform="translate(1.1 -32.26)"/><ellipse class="cls-35" cx="180.58" cy="76.05" rx="1.05" ry="1.07"/><ellipse class="cls-35" cx="173.9" cy="47.77" rx="1.05" ry="1.07"/><path class="cls-35" d="M34.73,111.42a1.05,1.05,0,1,1-1-1.07A1.06,1.06,0,0,1,34.73,111.42Z" transform="translate(1.1 -32.26)"/><path class="cls-35" d="M36.77,106.68a1.05,1.05,0,1,1-1.05-1.07A1.06,1.06,0,0,1,36.77,106.68Z" transform="translate(1.1 -32.26)"/><ellipse class="cls-35" cx="52.9" cy="67.88" rx="1.05" ry="1.07"/><path class="cls-35" d="M60.11,81.09a1.05,1.05,0,1,1-1-1.07A1.06,1.06,0,0,1,60.11,81.09Z" transform="translate(1.1 -32.26)"/><path class="cls-35" d="M62.22,39.59a1.06,1.06,0,1,1-1.06-1.07A1.06,1.06,0,0,1,62.22,39.59Z" transform="translate(1.1 -32.26)"/></g></g></g></svg>